<?xml version="1.0" encoding="utf-8"?>
<!-- Generator: Adobe Illustrator 22.0.1, SVG Export Plug-In . SVG Version: 6.00 Build 0)  -->
<svg version="1.1" id="Layer_1" xmlns="http://www.w3.org/2000/svg" xmlns:xlink="http://www.w3.org/1999/xlink" x="0px" y="0px"
	 viewBox="0 0 128 128" style="enable-background:new 0 0 128 128;" xml:space="preserve">
<style type="text/css">
	.st0{opacity:0.95;fill:#FFFFFF;}
	.st1{fill:#FFFFFF;}
</style>
<g>
	<path class="st0" d="M23,96.8c-0.6,0-1.2-0.1-1.8-0.3c-2.1-0.8-3.5-2.7-3.5-5V79.3h-3.5C8.6,79.3,4,74.7,4,69.1V23
		c0-5.6,4.6-10.2,10.2-10.2h76.7c5.6,0,10.2,4.6,10.2,10.2v46.1c0,5.6-4.6,10.2-10.2,10.2H40.1L27,94.9C26,96.1,24.5,96.8,23,96.8z
		 M14.2,20.1c-1.6,0-2.8,1.3-2.8,2.8v46.1c0,1.6,1.3,2.8,2.8,2.8h7.2c2,0,3.7,1.6,3.7,3.7v10.3l10.6-12.7c0.7-0.8,1.7-1.3,2.8-1.3
		h52.4c1.6,0,2.8-1.3,2.8-2.8V23c0-1.6-1.3-2.8-2.8-2.8H14.2z"/>
	<path class="st0" d="M105,115.2c-1.5,0-3-0.7-4-1.9L87.9,97.7H42.8c-2,0-3.7-1.6-3.7-3.7s1.6-3.7,3.7-3.7h46.8
		c1.1,0,2.1,0.5,2.8,1.3l10.6,12.7V94c0-2,1.6-3.7,3.7-3.7h7.2c1.6,0,2.8-1.3,2.8-2.8V41.4c0-1.6-1.3-2.8-2.8-2.8h-2.4
		c-2,0-3.7-1.6-3.7-3.7c0-2,1.6-3.7,3.7-3.7h2.4c5.6,0,10.2,4.6,10.2,10.2v46.1c0,5.6-4.6,10.2-10.2,10.2h-3.5v12.2
		c0,2.2-1.4,4.2-3.5,5C106.2,115.1,105.6,115.2,105,115.2z"/>
	<path class="st1" d="M40.5,51.1c-2,0-3.7-1.6-3.7-3.7v-0.7c0-2,1.6-3.7,3.7-3.7c2,0,3.7,1.6,3.7,3.7v0.7
		C44.1,49.5,42.5,51.1,40.5,51.1z"/>
	<path class="st1" d="M52.4,51.1c-2,0-3.7-1.6-3.7-3.7v-0.7c0-2,1.6-3.7,3.7-3.7c2,0,3.7,1.6,3.7,3.7v0.7
		C56,49.5,54.4,51.1,52.4,51.1z"/>
	<path class="st1" d="M64.2,51.1c-2,0-3.7-1.6-3.7-3.7v-0.7c0-2,1.6-3.7,3.7-3.7c2,0,3.7,1.6,3.7,3.7v0.7
		C67.9,49.5,66.3,51.1,64.2,51.1z"/>
</g>
</svg>
