<?xml version="1.0" encoding="utf-8"?>
<!-- Generator: Adobe Illustrator 22.0.1, SVG Export Plug-In . SVG Version: 6.00 Build 0)  -->
<svg version="1.1" id="Layer_1" xmlns="http://www.w3.org/2000/svg" xmlns:xlink="http://www.w3.org/1999/xlink" x="0px" y="0px"
	 viewBox="0 0 128 128" style="enable-background:new 0 0 128 128;" xml:space="preserve">
<style type="text/css">
	.st0{fill:#FF8A00;}
</style>
<g>
	<path class="st0" d="M64,124C30.9,124,4,97.1,4,64S30.9,4,64,4s60,26.9,60,60S97.1,124,64,124z M64,11.1
		c-29.2,0-52.9,23.7-52.9,52.9c0,29.2,23.7,52.9,52.9,52.9c29.2,0,52.9-23.7,52.9-52.9C116.9,34.8,93.2,11.1,64,11.1z"/>
	<path class="st0" d="M65.8,60.9L65.8,60.9C65.8,60.9,65.8,60.9,65.8,60.9L65.8,60.9z M86.5,36.8H41.2c-2.2,0-3.9,1.7-3.9,3.8v45.8
		c0,2.1,1.8,3.8,3.9,3.8h45.3c2.2,0,3.9-1.7,3.9-3.8V40.7C90.4,38.5,88.6,36.8,86.5,36.8z M53.3,81.6h-8V57.4h8V81.6z M49.3,54.1
		L49.3,54.1c-2.7,0-4.5-1.9-4.5-4.2c0-2.4,1.8-4.2,4.5-4.2c2.7,0,4.4,1.8,4.5,4.2C53.9,52.3,52.1,54.1,49.3,54.1z M82.3,81.6
		L82.3,81.6h-8V68.7c0-3.2-1.2-5.5-4.1-5.5c-2.2,0-3.5,1.5-4.1,2.9c-0.2,0.5-0.3,1.2-0.3,2v13.5h-8c0,0,0.1-21.9,0-24.1h8v3.4
		c1.1-1.6,3-4,7.2-4c5.3,0,9.2,3.5,9.2,10.9V81.6z"/>
</g>
</svg>
