<?xml version="1.0" encoding="utf-8"?>
<!-- Generator: Adobe Illustrator 22.0.1, SVG Export Plug-In . SVG Version: 6.00 Build 0)  -->
<svg version="1.1" id="Layer_1" xmlns="http://www.w3.org/2000/svg" xmlns:xlink="http://www.w3.org/1999/xlink" x="0px" y="0px"
	 viewBox="0 0 128 128" style="enable-background:new 0 0 128 128;" xml:space="preserve">
<style type="text/css">
	.st0{fill:#FF8A00;}
</style>
<g>
	<path class="st0" d="M64,124C30.9,124,4,97.1,4,64S30.9,4,64,4s60,26.9,60,60S97.1,124,64,124z M64,11.1
		c-29.2,0-52.9,23.7-52.9,52.9c0,29.2,23.7,52.9,52.9,52.9c29.2,0,52.9-23.7,52.9-52.9C116.9,34.8,93.2,11.1,64,11.1z"/>
	<path class="st0" d="M92.8,49.6C92.1,47,90,45,87.5,44.3C82.8,43,64,43,64,43s-18.8,0-23.5,1.2c-2.5,0.7-4.6,2.8-5.3,5.3
		C34,54.3,34,64,34,64s0,9.8,1.2,14.4c0.7,2.6,2.7,4.6,5.3,5.3C45.3,85,64,85,64,85s18.8,0,23.5-1.2c2.6-0.7,4.6-2.7,5.3-5.3
		C94,73.8,94,64,94,64S94,54.3,92.8,49.6z M58,73V55l15.6,9L58,73z"/>
</g>
</svg>
