<?xml version="1.0" encoding="utf-8"?>
<!-- Generator: Adobe Illustrator 22.0.1, SVG Export Plug-In . SVG Version: 6.00 Build 0)  -->
<svg version="1.1" id="Layer_1" xmlns="http://www.w3.org/2000/svg" xmlns:xlink="http://www.w3.org/1999/xlink" x="0px" y="0px"
	 viewBox="0 0 128 128" style="enable-background:new 0 0 128 128;" xml:space="preserve">
<style type="text/css">
	.st0{fill:#FF8A00;}
</style>
<g>
	<g>
		<g>
			<path class="st0" d="M76.9,66h-8.4c0,13.4,0,30,0,30H56c0,0,0-16.4,0-30h-5.9V55.4H56v-6.9C56,43.6,58.3,36,68.6,36l9.2,0v10.3
				c0,0-5.6,0-6.7,0c-1.1,0-2.6,0.5-2.6,2.9v6.2h9.5L76.9,66z"/>
		</g>
	</g>
	<path class="st0" d="M64,124C30.9,124,4,97.1,4,64S30.9,4,64,4s60,26.9,60,60S97.1,124,64,124z M64,11.1
		c-29.2,0-52.9,23.7-52.9,52.9c0,29.2,23.7,52.9,52.9,52.9c29.2,0,52.9-23.7,52.9-52.9C116.9,34.8,93.2,11.1,64,11.1z"/>
</g>
</svg>
