<?xml version="1.0" encoding="utf-8"?>
<!-- Generator: Adobe Illustrator 22.0.1, SVG Export Plug-In . SVG Version: 6.00 Build 0)  -->
<svg version="1.1" id="Layer_1" xmlns="http://www.w3.org/2000/svg" xmlns:xlink="http://www.w3.org/1999/xlink" x="0px" y="0px"
	 viewBox="0 0 128 128" style="enable-background:new 0 0 128 128;" xml:space="preserve">
<style type="text/css">
	.st0{fill:#FF8A00;}
</style>
<g>
	<g>
		<g>
			<path class="st0" d="M86.6,52.4c0,0.5,0,1,0,1.5c0,15.4-11.7,33.2-33.2,33.2c-6.6,0-12.7-1.9-17.9-5.2c0.9,0.1,1.8,0.2,2.8,0.2
				c5.5,0,10.5-1.9,14.5-5c-5.1-0.1-9.4-3.5-10.9-8.1c0.7,0.1,1.4,0.2,2.2,0.2c1.1,0,2.1-0.1,3.1-0.4c-5.3-1.1-9.4-5.8-9.4-11.5
				c0,0,0-0.1,0-0.1c1.6,0.9,3.4,1.4,5.3,1.5c-3.1-2.1-5.2-5.7-5.2-9.7c0-2.1,0.6-4.1,1.6-5.9c5.8,7.1,14.4,11.7,24.1,12.2
				c-0.2-0.9-0.3-1.7-0.3-2.7c0-6.4,5.2-11.7,11.7-11.7c3.4,0,6.4,1.4,8.5,3.7c2.7-0.5,5.2-1.5,7.4-2.8c-0.9,2.7-2.7,5-5.1,6.5
				c2.4-0.3,4.6-0.9,6.7-1.8C90.9,48.7,88.9,50.7,86.6,52.4z"/>
		</g>
	</g>
	<path class="st0" d="M64,124C30.9,124,4,97.1,4,64S30.9,4,64,4s60,26.9,60,60S97.1,124,64,124z M64,11.1
		c-29.2,0-52.9,23.7-52.9,52.9c0,29.2,23.7,52.9,52.9,52.9c29.2,0,52.9-23.7,52.9-52.9C116.9,34.8,93.2,11.1,64,11.1z"/>
</g>
</svg>
