<?xml version="1.0" encoding="utf-8"?>
<!-- Generator: Adobe Illustrator 22.0.1, SVG Export Plug-In . SVG Version: 6.00 Build 0)  -->
<svg version="1.1" id="Layer_1" xmlns="http://www.w3.org/2000/svg" xmlns:xlink="http://www.w3.org/1999/xlink" x="0px" y="0px"
	 viewBox="0 0 128 128" style="enable-background:new 0 0 128 128;" xml:space="preserve">
<style type="text/css">
	.st0{fill:#FFFFFF;}
</style>
<g>
	<g id="help_5_">
		<path class="st0" d="M64,11.5c-28.9,0-52.5,23.6-52.5,52.5s23.6,52.5,52.5,52.5s52.5-23.6,52.5-52.5S92.9,11.5,64,11.5z
			 M69.3,100.8H58.8V90.3h10.5V100.8z M80.3,60.3l-4.7,4.7c-4.2,3.7-6.3,6.8-6.3,14.7H58.8v-2.6c0-5.8,2.1-11,6.3-14.7l6.3-6.8
			c2.1-1.6,3.1-4.2,3.1-7.3c0-5.8-4.7-10.5-10.5-10.5s-10.5,4.7-10.5,10.5H43c0-11.5,9.4-21,21-21s21,9.5,21,21
			C85,53,82.9,57.2,80.3,60.3z"/>
	</g>
</g>
</svg>
