<?xml version="1.0" encoding="utf-8"?>
<!-- Generator: Adobe Illustrator 22.0.1, SVG Export Plug-In . SVG Version: 6.00 Build 0)  -->
<svg version="1.1" id="Layer_1" xmlns="http://www.w3.org/2000/svg" xmlns:xlink="http://www.w3.org/1999/xlink" x="0px" y="0px"
	 viewBox="0 0 128 128" style="enable-background:new 0 0 128 128;" xml:space="preserve">
<style type="text/css">
	.st0{fill:#FFFFFF;}
</style>
<g>
	<path class="st0" d="M64.9,124h-1.7C43.8,124,28,108.2,28,88.9V39.1C28,19.8,43.8,4,63.1,4h1.7C84.2,4,100,19.8,100,39.1v49.7
		C100,108.2,84.2,124,64.9,124z M63.1,7.4c-17.5,0-31.7,14.2-31.7,31.7v49.7c0,17.5,14.2,31.7,31.7,31.7h1.7
		c17.5,0,31.7-14.2,31.7-31.7V39.1c0-17.5-14.2-31.7-31.7-31.7H63.1z"/>
	<path class="st0" d="M64,48.6c-0.9,0-1.7-0.8-1.7-1.7V28c0-0.9,0.8-1.7,1.7-1.7c0.9,0,1.7,0.8,1.7,1.7v18.9
		C65.7,47.8,64.9,48.6,64,48.6z"/>
</g>
</svg>
