<?xml version="1.0" encoding="utf-8"?>
<!-- Generator: Adobe Illustrator 22.0.1, SVG Export Plug-In . SVG Version: 6.00 Build 0)  -->
<svg version="1.1" id="Layer_1" xmlns="http://www.w3.org/2000/svg" xmlns:xlink="http://www.w3.org/1999/xlink" x="0px" y="0px"
	 viewBox="0 0 128 128" style="enable-background:new 0 0 128 128;" xml:space="preserve">
<style type="text/css">
	.st0{fill:#E6E6E6;}
</style>
<g>
	<g>
		<path class="st0" d="M64,4C30.9,4,4,30.9,4,64c0,33.1,26.9,60,60,60c33.1,0,60-26.9,60-60C124,30.9,97.1,4,64,4z M78.9,66.1h-9.8
			c0,15.6,0,34.8,0,34.8H54.7c0,0,0-19,0-34.8h-6.9V53.8h6.9v-8c0-5.7,2.7-14.6,14.6-14.6l10.7,0v11.9c0,0-6.5,0-7.8,0
			c-1.3,0-3.1,0.6-3.1,3.3v7.2h11L78.9,66.1z"/>
	</g>
</g>
</svg>
