<?xml version="1.0" encoding="utf-8"?>
<!-- Generator: Adobe Illustrator 22.0.1, SVG Export Plug-In . SVG Version: 6.00 Build 0)  -->
<svg version="1.1" id="Layer_1" xmlns="http://www.w3.org/2000/svg" xmlns:xlink="http://www.w3.org/1999/xlink" x="0px" y="0px"
	 viewBox="0 0 128 128" style="enable-background:new 0 0 128 128;" xml:space="preserve">
<style type="text/css">
	.st0{fill:#E6E6E6;}
</style>
<g>
	<g>
		<g>
			<path class="st0" d="M74.9,55.5c-5.1,0-7.4,2.8-8.7,4.8v-4.1h-9.7c0.1,2.7,0,29.1,0,29.1h9.7V69c0-0.9,0.1-1.7,0.3-2.4
				c0.7-1.7,2.3-3.5,5-3.5c3.5,0,4.9,2.7,4.9,6.6v15.6h9.7h0V68.6C86.1,59.6,81.3,55.5,74.9,55.5z M66.2,60.4L66.2,60.4
				C66.2,60.3,66.2,60.3,66.2,60.4L66.2,60.4z"/>
			<rect x="41.5" y="56.2" class="st0" width="9.7" height="29.1"/>
			<path class="st0" d="M64,4C30.9,4,4,30.9,4,64c0,33.1,26.9,60,60,60c33.1,0,60-26.9,60-60C124,30.9,97.1,4,64,4z M95.8,91.1
				c0,2.6-2.1,4.6-4.7,4.6H36.5c-2.6,0-4.7-2.1-4.7-4.6V35.9c0-2.5,2.1-4.6,4.7-4.6h54.6c2.6,0,4.7,2.1,4.7,4.6L95.8,91.1z"/>
			<path class="st0" d="M46.4,42.1c-3.3,0-5.5,2.2-5.5,5c0,2.8,2.1,5,5.3,5h0.1c3.4,0,5.5-2.2,5.5-5C51.8,44.3,49.7,42.1,46.4,42.1z
				"/>
		</g>
	</g>
</g>
</svg>
