<?xml version="1.0" encoding="utf-8"?>
<!-- Generator: Adobe Illustrator 22.0.1, SVG Export Plug-In . SVG Version: 6.00 Build 0)  -->
<svg version="1.1" id="Layer_1" xmlns="http://www.w3.org/2000/svg" xmlns:xlink="http://www.w3.org/1999/xlink" x="0px" y="0px"
	 viewBox="0 0 128 128" style="enable-background:new 0 0 128 128;" xml:space="preserve">
<style type="text/css">
	.st0{fill:#E6E6E6;}
</style>
<g>
	<path class="st0" d="M56.5,75.2L76,64L56.5,52.8V75.2z"/>
	<path class="st0" d="M64,4C30.9,4,4,30.9,4,64s26.9,60,60,60s60-26.9,60-60S97.1,4,64,4z M101.5,64.1c0,0,0,12.2-1.5,18
		c-0.9,3.2-3.4,5.7-6.6,6.6C87.5,90.3,64,90.3,64,90.3s-23.4,0-29.3-1.6c-3.2-0.9-5.7-3.4-6.6-6.6c-1.5-5.8-1.5-18-1.5-18
		s0-12.2,1.5-18c0.9-3.2,3.5-5.8,6.6-6.7c5.9-1.5,29.3-1.5,29.3-1.5s23.5,0,29.3,1.6c3.2,0.9,5.7,3.4,6.6,6.6
		C101.6,51.8,101.5,64.1,101.5,64.1z"/>
</g>
</svg>
