<?xml version="1.0" encoding="utf-8"?>
<!-- Generator: Adobe Illustrator 22.0.1, SVG Export Plug-In . SVG Version: 6.00 Build 0)  -->
<svg version="1.1" id="Layer_1" xmlns="http://www.w3.org/2000/svg" xmlns:xlink="http://www.w3.org/1999/xlink" x="0px" y="0px"
	 viewBox="0 0 128 128" style="enable-background:new 0 0 128 128;" xml:space="preserve">
<style type="text/css">
	.st0{fill:#E6E6E6;}
</style>
<g>
	<g>
		<path class="st0" d="M64,4C30.9,4,4,30.9,4,64c0,33.1,26.9,60,60,60c33.1,0,60-26.9,60-60C124,30.9,97.1,4,64,4z M90.8,50.3
			c0,0.6,0,1.2,0,1.8c0,18.2-13.9,39.3-39.3,39.3c-7.8,0-15.1-2.3-21.2-6.2c1.1,0.1,2.2,0.2,3.3,0.2c6.5,0,12.4-2.2,17.2-5.9
			c-6-0.1-11.1-4.1-12.9-9.6c0.8,0.2,1.7,0.2,2.6,0.2c1.3,0,2.5-0.2,3.6-0.5C37.8,68.3,33,62.8,33,56.1c0-0.1,0-0.1,0-0.2
			c1.9,1,4,1.7,6.3,1.7c-3.7-2.5-6.1-6.7-6.1-11.5c0-2.5,0.7-4.9,1.9-6.9c6.8,8.4,17,13.9,28.5,14.4c-0.2-1-0.4-2.1-0.4-3.1
			c0-7.6,6.2-13.8,13.8-13.8c4,0,7.6,1.7,10.1,4.4c3.1-0.6,6.1-1.8,8.8-3.4c-1,3.2-3.2,5.9-6.1,7.6c2.8-0.3,5.5-1.1,7.9-2.2
			C95.8,45.9,93.5,48.3,90.8,50.3z"/>
	</g>
</g>
</svg>
