<?xml version="1.0" encoding="utf-8"?>
<!-- Generator: Adobe Illustrator 22.0.1, SVG Export Plug-In . SVG Version: 6.00 Build 0)  -->
<svg version="1.1" id="Layer_1" xmlns="http://www.w3.org/2000/svg" xmlns:xlink="http://www.w3.org/1999/xlink" x="0px" y="0px"
	 viewBox="0 0 128 128" style="enable-background:new 0 0 128 128;" xml:space="preserve">
<style type="text/css">
	.st0{fill:#FF8A00;}
</style>
<g>
	<g id="call_6_">
		<path class="st0" d="M31.6,56.8C40,73.6,54.4,87.4,71.2,96.4l13.2-13.2c1.8-1.8,4.2-2.4,6-1.2c6.6,2.4,13.8,3.6,21.6,3.6
			c3.6,0,6,2.4,6,6V112c0,3.6-2.4,6-6,6C55.6,118,10,72.4,10,16c0-3.6,2.4-6,6-6h21c3.6,0,6,2.4,6,6c0,7.2,1.2,14.4,3.6,21.6
			c0.6,1.8,0,4.2-1.2,6L31.6,56.8z"/>
	</g>
</g>
</svg>
