<?xml version="1.0" encoding="utf-8"?>
<!-- Generator: Adobe Illustrator 22.0.1, SVG Export Plug-In . SVG Version: 6.00 Build 0)  -->
<svg version="1.1" id="Layer_1" xmlns="http://www.w3.org/2000/svg" xmlns:xlink="http://www.w3.org/1999/xlink" x="0px" y="0px"
	 viewBox="0 0 128 128" style="enable-background:new 0 0 128 128;" xml:space="preserve">
<style type="text/css">
	.st0{fill:#FF8A00;}
</style>
<g>
	<path class="st0" d="M64,124C30.9,124,4,97.1,4,64C4,30.9,30.9,4,64,4s60,26.9,60,60C124,97.1,97.1,124,64,124z M64,9.2
		C33.8,9.2,9.2,33.8,9.2,64s24.6,54.8,54.8,54.8c30.2,0,54.8-24.6,54.8-54.8S94.2,9.2,64,9.2z"/>
	<g>
		<polygon class="st0" points="50,69.4 42.7,62.1 64,40.8 85.3,62.1 78,69.4 64,55.4 		"/>
		<rect x="58.8" y="47.2" class="st0" width="10.3" height="33.5"/>
	</g>
</g>
</svg>
